<svg width="14" height="14" viewBox="0 0 14 14" fill="none" xmlns="http://www.w3.org/2000/svg">
<path d="M13 7C13 8.59129 12.3679 10.1174 11.2427 11.2426C10.1174 12.3679 8.59132 13 7.00003 13C5.40873 13 3.8826 12.3679 2.75739 11.2426C1.63217 10.1174 1.00003 8.59129 1.00003 7C1.00003 5.4087 1.63217 3.88257 2.75739 2.75735C3.8826 1.63214 5.40873 0.999996 7.00003 0.999996C8.59132 0.999996 10.1174 1.63214 11.2427 2.75735C12.3679 3.88257 13 5.4087 13 7ZM0.142883 7C0.142883 8.81862 0.86533 10.5628 2.15129 11.8487C3.43726 13.1347 5.1814 13.8571 7.00003 13.8571C8.81865 13.8571 10.5628 13.1347 11.8488 11.8487C13.1347 10.5628 13.8572 8.81862 13.8572 7C13.8572 5.18137 13.1347 3.43723 11.8488 2.15126C10.5628 0.8653 8.81865 0.142853 7.00003 0.142853C5.1814 0.142853 3.43726 0.8653 2.15129 2.15126C0.86533 3.43723 0.142883 5.18137 0.142883 7ZM6.57145 3.14285V7C6.57145 7.14196 6.64378 7.27589 6.76163 7.35624L9.33306 9.07053C9.53128 9.20178 9.79645 9.14821 9.9277 8.95267C10.059 8.75714 10.0054 8.48928 9.80985 8.35803L7.4286 6.76964V3.14285C7.4286 2.90714 7.23574 2.71428 7.00003 2.71428C6.76431 2.71428 6.57145 2.90714 6.57145 3.14285Z" fill="white"/>
</svg>
